<svg xmlns="http://www.w3.org/2000/svg" viewBox="0 0 64 64" role="img" aria-label="demon" data-style="reference-orbit-v2">
  <defs>
    <filter id="soft-shadow" x="-30%" y="-30%" width="160%" height="160%" color-interpolation-filters="sRGB">
      <feDropShadow dx="0" dy="4" stdDeviation="3.2" flood-color="#000" flood-opacity=".18"/>
    </filter>
    <radialGradient id="surface" cx="30%" cy="24%" r="76%">
      <stop offset="0" stop-color="#fff" stop-opacity=".22"/>
      <stop offset=".48" stop-color="#fff" stop-opacity=".04"/>
      <stop offset="1" stop-color="#000" stop-opacity=".07"/>
    </radialGradient>
  </defs>
  <circle cx="32" cy="32" r="24" fill="#d83b82" filter="url(#soft-shadow)"/>
  <circle cx="32" cy="32" r="24" fill="url(#surface)" opacity=".9"/>
  <g transform="translate(5.44 5.44) scale(.83)">
  <g data-icon="horned-face" fill="#fff">
      <path d="M17 17c5 6 9 6 15 2 6 4 10 4 15-2l-2 16c-2 13-8 21-13 24-5-3-11-11-13-24z"/>
      <path d="M21 17c-3-2-5-6-5-10 6 2 10 6 12 11zM43 17c3-2 5-6 5-10-6 2-10 6-12 11z"/>
      <path d="M24 35c3 0 6 2 8 5 2-3 5-5 8-5-2 7-6 11-8 12-2-1-6-5-8-12z" fill="#d83b82" opacity=".82"/>
      <path d="M21 31h9M34 31h9" stroke="#d83b82" stroke-width="3.5" stroke-linecap="round"/>
    </g>
  </g>
</svg>
