<svg xmlns="http://www.w3.org/2000/svg" viewBox="0 0 64 64" role="img" aria-label="fantasy" data-style="reference-orbit-v2">
  <defs>
    <filter id="soft-shadow" x="-30%" y="-30%" width="160%" height="160%" color-interpolation-filters="sRGB">
      <feDropShadow dx="0" dy="4" stdDeviation="3.2" flood-color="#000" flood-opacity=".18"/>
    </filter>
    <radialGradient id="surface" cx="30%" cy="24%" r="76%">
      <stop offset="0" stop-color="#fff" stop-opacity=".22"/>
      <stop offset=".48" stop-color="#fff" stop-opacity=".04"/>
      <stop offset="1" stop-color="#000" stop-opacity=".07"/>
    </radialGradient>
  </defs>
  <circle cx="32" cy="32" r="24" fill="#8ea0ff" filter="url(#soft-shadow)"/>
  <circle cx="32" cy="32" r="24" fill="url(#surface)" opacity=".9"/>
  <g transform="translate(5.44 5.44) scale(.83)">
  <path data-icon="spiral-mark" d="M45 46c-7 6-19 6-27-1-8-8-6-21 3-28 8-7 21-5 26 4 5 8 1 19-8 23-8 4-18 0-19-8-1-6 4-12 11-13 6-.7 12 3 13 9 .8 5-3 10-8 11-4 .8-9-1-10-5-.8-3 2-7 6-7" fill="none" stroke="#fff" stroke-width="6.5" stroke-linecap="round" stroke-linejoin="round"/>
  </g>
</svg>
