<svg xmlns="http://www.w3.org/2000/svg" viewBox="0 0 64 64" role="img" aria-label="mechanical" data-style="reference-orbit-v2">
  <defs>
    <filter id="soft-shadow" x="-30%" y="-30%" width="160%" height="160%" color-interpolation-filters="sRGB">
      <feDropShadow dx="0" dy="4" stdDeviation="3.2" flood-color="#000" flood-opacity=".18"/>
    </filter>
    <radialGradient id="surface" cx="30%" cy="24%" r="76%">
      <stop offset="0" stop-color="#fff" stop-opacity=".22"/>
      <stop offset=".48" stop-color="#fff" stop-opacity=".04"/>
      <stop offset="1" stop-color="#000" stop-opacity=".07"/>
    </radialGradient>
  </defs>
  <circle cx="32" cy="32" r="24" fill="#30c7b1" filter="url(#soft-shadow)"/>
  <circle cx="32" cy="32" r="24" fill="url(#surface)" opacity=".9"/>
  <g transform="translate(5.44 5.44) scale(.83)">
  <g data-icon="gear-mark" fill="#fff" fill-rule="evenodd">
      <path d="M37 7h-10l-2 7-6 3-7-3-5 9 5 5v8l-5 5 5 9 7-3 6 3 2 7h10l2-7 6-3 7 3 5-9-5-5v-8l5-5-5-9-7 3-6-3zM32 23a9 9 0 1 1 0 18 9 9 0 0 1 0-18z"/>
      <circle cx="32" cy="32" r="5" fill="#30c7b1" opacity=".75"/>
    </g>
  </g>
</svg>
