<svg xmlns="http://www.w3.org/2000/svg" viewBox="0 0 64 64" role="img" aria-label="normal" data-style="reference-orbit-v2">
  <defs>
    <filter id="soft-shadow" x="-30%" y="-30%" width="160%" height="160%" color-interpolation-filters="sRGB">
      <feDropShadow dx="0" dy="4" stdDeviation="3.2" flood-color="#000" flood-opacity=".18"/>
    </filter>
    <radialGradient id="surface" cx="30%" cy="24%" r="76%">
      <stop offset="0" stop-color="#fff" stop-opacity=".22"/>
      <stop offset=".48" stop-color="#fff" stop-opacity=".04"/>
      <stop offset="1" stop-color="#000" stop-opacity=".07"/>
    </radialGradient>
  </defs>
  <circle cx="32" cy="32" r="24" fill="#3b90b5" filter="url(#soft-shadow)"/>
  <circle cx="32" cy="32" r="24" fill="url(#surface)" opacity=".9"/>
  <g transform="translate(5.44 5.44) scale(.83)">
  <g data-icon="ring-star" fill="#fff" fill-rule="evenodd">
      <path d="M32 10a22 22 0 1 1 0 44 22 22 0 0 1 0-44zm0 8a14 14 0 1 0 0 28 14 14 0 0 0 0-28z"/>
      <path d="M32 21 36 29l9 1-7 6 2 9-8-5-8 5 2-9-7-6 9-1z"/>
    </g>
  </g>
</svg>
