<svg xmlns="http://www.w3.org/2000/svg" viewBox="0 0 64 64" role="img" aria-label="wing" data-style="reference-orbit-v2">
  <defs>
    <filter id="soft-shadow" x="-30%" y="-30%" width="160%" height="160%" color-interpolation-filters="sRGB">
      <feDropShadow dx="0" dy="4" stdDeviation="3.2" flood-color="#000" flood-opacity=".18"/>
    </filter>
    <radialGradient id="surface" cx="30%" cy="24%" r="76%">
      <stop offset="0" stop-color="#fff" stop-opacity=".22"/>
      <stop offset=".48" stop-color="#fff" stop-opacity=".04"/>
      <stop offset="1" stop-color="#000" stop-opacity=".07"/>
    </radialGradient>
  </defs>
  <circle cx="32" cy="32" r="24" fill="#31c8cd" filter="url(#soft-shadow)"/>
  <circle cx="32" cy="32" r="24" fill="url(#surface)" opacity=".9"/>
  <g transform="translate(5.44 5.44) scale(.83)">
  <g data-icon="wing-swirl" fill="#fff">
      <path d="M12 43c16-24 31-34 44-34-2 18-18 33-40 39 7-6 16-11 27-17-11 3-22 8-31 12z"/>
      <path d="M30 50c-11 2-19-2-20-9 9 4 19 1 29-7-6 5-9 9-9 16z"/>
      <path d="M25 42c5-6 14-12 25-17" stroke="#31c8cd" stroke-width="4.2" stroke-linecap="round" fill="none" opacity=".58"/>
    </g>
  </g>
</svg>
